<?xml version="1.0" encoding="utf-8"?>
<!-- Uploaded to: SVG Repo, www.svgrepo.com, Generator: SVG Repo Mixer Tools -->
<svg fill="#000000" width="800px" height="800px" viewBox="0 0 32 32" version="1.1" xmlns="http://www.w3.org/2000/svg">
<title>Laracamp</title>
<path d="M24.76 12.039v2.437c0 0.1-0.062 0.137-0.2 0.137-0.091-0.006-0.197-0.009-0.304-0.009-0.745 0-1.452 0.16-2.090 0.447l0.032-0.013c-0.263 0.114-0.487 0.27-0.674 0.462l-0 0v6.373c0 0.125-0.050 0.175-0.162 0.175h-2.437c-0.009 0.002-0.018 0.002-0.029 0.002-0.088 0-0.16-0.065-0.171-0.15l-0-0.001v-6.974c0-0.3 0-0.612-0.012-0.937s-0.012-0.65-0.025-0.975q-0.019-0.412-0.076-0.825c-0.002-0.008-0.003-0.016-0.003-0.025 0-0.055 0.038-0.101 0.090-0.112l0.001-0c0.012-0.012 0.025-0.012 0.050 0h2.187c0.124 0.003 0.227 0.085 0.262 0.198l0.001 0.002c0.049 0.083 0.084 0.18 0.099 0.283l0 0.004c0.025 0.125 0.049 0.262 0.062 0.387 0.012 0.137 0.026 0.287 0.026 0.45 0.372-0.433 0.814-0.792 1.311-1.063l0.024-0.012c0.514-0.284 1.126-0.451 1.778-0.451 0.030 0 0.059 0 0.089 0.001l-0.004-0c0.006-0.001 0.013-0.001 0.020-0.001 0.080 0 0.146 0.060 0.155 0.138l0 0.001zM16.95 21.86c-0.004 0.061-0.032 0.114-0.075 0.151l-0 0c-0.033 0.023-0.074 0.036-0.119 0.036-0.003 0-0.005-0-0.008-0h-7.921c-0.137 0-0.2-0.076-0.2-0.225v-12.77c-0.001-0.006-0.001-0.013-0.001-0.020 0-0.080 0.060-0.146 0.138-0.155l0.001-0h2.499c0.006-0.001 0.014-0.002 0.021-0.002 0.059 0 0.108 0.044 0.116 0.101l0 0.001v10.534h5.773c0.126 0 0.164 0.061 0.137 0.175zM25.685 1.379h-19.369c-0.001 0-0.003 0-0.004 0-2.931 0-5.307 2.376-5.307 5.307 0 0.002 0 0.003 0 0.005v-0 18.62c0 0.001 0 0.003 0 0.004 0 2.931 2.376 5.307 5.307 5.307 0.002 0 0.003 0 0.005 0h19.369c0.001 0 0.003 0 0.004 0 2.931 0 5.307-2.376 5.307-5.307 0-0.002 0-0.003 0-0.005v0-18.62c0-0.001 0-0.003 0-0.004 0-2.931-2.376-5.307-5.307-5.307-0.002 0-0.003 0-0.005 0h0z"></path>
</svg>